<svg width="92" height="32" viewBox="0 0 92 32" fill="none" xmlns="http://www.w3.org/2000/svg">
<path d="M23.31 27V11.71H30.812V13.338L25.158 13.272L25.026 18.464L30.13 18.442V20.004H25.048L25.136 27H23.31ZM34.332 27V10.434H36.158V27H34.332ZM44.8243 27.286C43.6069 27.286 42.6463 27.0147 41.9423 26.472C41.2529 25.9293 40.7616 25.1593 40.4683 24.162C40.1749 23.1647 40.0283 21.9767 40.0283 20.598C40.0283 19.2193 40.1749 18.0313 40.4683 17.034C40.7616 16.0367 41.2529 15.2667 41.9423 14.724C42.6463 14.1813 43.6069 13.91 44.8243 13.91C46.0416 13.91 46.9949 14.1813 47.6843 14.724C48.3883 15.2667 48.8869 16.0367 49.1803 17.034C49.4736 18.0313 49.6203 19.2193 49.6203 20.598C49.6203 21.9767 49.4736 23.1647 49.1803 24.162C48.8869 25.1593 48.3883 25.9293 47.6843 26.472C46.9949 27.0147 46.0416 27.286 44.8243 27.286ZM44.8243 25.702C45.3816 25.702 45.8436 25.636 46.2103 25.504C46.5916 25.372 46.8923 25.13 47.1123 24.778C47.3469 24.426 47.5083 23.9127 47.5963 23.238C47.6989 22.5633 47.7503 21.6833 47.7503 20.598C47.7503 19.5127 47.6989 18.6327 47.5963 17.958C47.5083 17.2833 47.3469 16.77 47.1123 16.418C46.8923 16.0513 46.5916 15.8093 46.2103 15.692C45.8436 15.56 45.3816 15.494 44.8243 15.494C44.2669 15.494 43.7976 15.56 43.4163 15.692C43.0496 15.8093 42.7489 16.0513 42.5143 16.418C42.2943 16.77 42.1329 17.2833 42.0303 17.958C41.9276 18.6327 41.8763 19.5127 41.8763 20.598C41.8763 21.6833 41.9276 22.5633 42.0303 23.238C42.1329 23.9127 42.2943 24.426 42.5143 24.778C42.7489 25.13 43.0496 25.372 43.4163 25.504C43.7976 25.636 44.2669 25.702 44.8243 25.702ZM73.7075 27.308C72.6955 27.308 71.8009 27.0953 71.0235 26.67C70.2609 26.23 69.6669 25.5187 69.2415 24.536C68.8162 23.5387 68.6035 22.2187 68.6035 20.576C68.6035 18.86 68.8235 17.518 69.2635 16.55C69.7182 15.582 70.3269 14.9 71.0895 14.504C71.8522 14.0933 72.7102 13.888 73.6635 13.888C74.6169 13.888 75.4235 14.0787 76.0835 14.46C76.7582 14.8413 77.2715 15.4793 77.6235 16.374C77.9755 17.254 78.1515 18.442 78.1515 19.938V21.324H70.5395C70.4955 22.2187 70.5322 22.93 70.6495 23.458C70.7669 23.9713 70.9062 24.3673 71.0675 24.646C71.2289 24.91 71.3682 25.0933 71.4855 25.196C71.8815 25.548 72.4902 25.724 73.3115 25.724C73.8835 25.724 74.4335 25.6727 74.9615 25.57C75.4895 25.4527 75.9589 25.328 76.3695 25.196C76.7949 25.0493 77.1175 24.9467 77.3375 24.888L77.7995 26.362C77.6675 26.4207 77.4109 26.5307 77.0295 26.692C76.6482 26.8387 76.1715 26.978 75.5995 27.11C75.0422 27.242 74.4115 27.308 73.7075 27.308ZM71.2435 16.352C70.7742 16.9827 70.5395 18.1487 70.5395 19.85L76.2815 19.74C76.2815 18.8893 76.2449 18.1633 76.1715 17.562C76.1129 16.946 75.9809 16.4693 75.7755 16.132C75.6729 15.9707 75.4969 15.824 75.2475 15.692C74.9982 15.5453 74.5142 15.472 73.7955 15.472C73.0475 15.472 72.4829 15.5527 72.1015 15.714C71.7349 15.8753 71.4489 16.088 71.2435 16.352ZM81.8099 27V14.196H82.9759L83.2179 15.494H83.3499C83.3499 15.494 83.4599 15.4133 83.6799 15.252C83.9146 15.0907 84.2152 14.9073 84.5819 14.702C84.9486 14.4967 85.3372 14.3133 85.7479 14.152C86.1732 13.9907 86.5692 13.91 86.9359 13.91C87.1559 13.91 87.3612 13.932 87.5519 13.976C87.7426 14.0053 87.8379 14.02 87.8379 14.02L87.6839 15.78C87.6839 15.78 87.5886 15.7727 87.3979 15.758C87.2072 15.7433 87.0312 15.736 86.8699 15.736C86.4592 15.736 86.0412 15.7947 85.6159 15.912C85.2052 16.0293 84.8239 16.176 84.4719 16.352C84.1199 16.528 83.8412 16.6967 83.6359 16.858V27H81.8099Z" fill="black"/>
<path d="M61.5694 25.0722C60.4449 23.9477 59 23.7588 59 23.7588C59 23.7588 59.1889 25.2037 60.3134 26.3282C61.4379 27.4528 62.9775 27.7363 62.9775 27.7363C62.9775 27.7363 62.6939 26.1967 61.5694 25.0722Z" fill="#66B394"/>
<path d="M63.2642 22.3794C60.7943 22.3794 59 23.7588 59 23.7588C59 23.7588 60.7942 25.1382 63.2642 25.1382C65.7341 25.1382 67.7363 23.7588 67.7363 23.7588C67.7363 23.7588 65.7341 22.3794 63.2642 22.3794Z" fill="#95D6A4"/>
<path d="M59 23.7588C59 23.7588 60.7942 22.3794 63.2642 22.3794C63.5288 22.3794 63.7881 22.3953 64.0401 22.4236C62.514 23.559 60.9436 24.1021 59.9936 24.3481C59.3656 24.0398 59 23.7588 59 23.7588Z" fill="#78C2A4"/>
<path d="M61.8847 18.1152C59.4148 20.5851 59 23.7588 59 23.7588C59 23.7588 62.1737 23.344 64.6436 20.8741C67.1135 18.4042 67.7363 15.0225 67.7363 15.0225C67.7363 15.0225 64.3546 15.6453 61.8847 18.1152Z" fill="#B3E59F"/>
<path d="M61.8709 18.1293C61.6618 20.5773 60.7013 22.5127 60.1034 23.5063C59.4331 23.7021 59 23.7588 59 23.7588C59 23.7588 59.4134 20.5972 61.8709 18.1293Z" fill="#95D6A4"/>
<path d="M56.4305 25.0722C57.555 23.9477 59 23.7588 59 23.7588C59 23.7588 58.8111 25.2037 57.6866 26.3282C56.5621 27.4528 55.0225 27.7363 55.0225 27.7363C55.0225 27.7363 55.306 26.1967 56.4305 25.0722Z" fill="#66B394"/>
<path d="M54.7358 22.3794C57.2057 22.3794 59 23.7588 59 23.7588C59 23.7588 57.2058 25.1382 54.7358 25.1382C52.2659 25.1382 50.2637 23.7588 50.2637 23.7588C50.2637 23.7588 52.2659 22.3794 54.7358 22.3794Z" fill="#95D6A4"/>
<path d="M59.0001 23.7588C59.0001 23.7588 57.2058 22.3794 54.7359 22.3794C54.4712 22.3794 54.212 22.3953 53.96 22.4236C55.486 23.559 57.0565 24.1021 58.0064 24.3481C58.6345 24.0398 59.0001 23.7588 59.0001 23.7588Z" fill="#78C2A4"/>
<path d="M56.1153 18.1152C58.5852 20.5851 59 23.7588 59 23.7588C59 23.7588 55.8263 23.344 53.3564 20.8741C50.8865 18.4042 50.2637 15.0225 50.2637 15.0225C50.2637 15.0225 53.6454 15.6453 56.1153 18.1152Z" fill="#B3E59F"/>
<path d="M56.1292 18.1293C56.3383 20.5773 57.2987 22.5127 57.8966 23.5063C58.567 23.7021 59 23.7588 59 23.7588C59 23.7588 58.5866 20.5972 56.1292 18.1293Z" fill="#95D6A4"/>
<path d="M61.1309 17.1719C61.1309 20.9872 59.0001 23.7588 59.0001 23.7588C59.0001 23.7588 56.8693 20.9872 56.8693 17.1719C56.8693 13.3566 59.0001 10.2637 59.0001 10.2637C59.0001 10.2637 61.1309 13.3566 61.1309 17.1719Z" fill="#CCF49F"/>
<path d="M60.1158 12.4066C60.2835 13.4486 60.3558 14.6078 60.2291 15.8121C59.9436 18.5248 58.7342 20.6577 57.9071 21.8348C58.4488 23.0415 59 23.7588 59 23.7588C59 23.7588 61.1309 20.9872 61.1309 17.1719C61.1309 15.3243 60.6312 13.6462 60.1158 12.4066Z" fill="#B3E59F"/>
<path d="M67.8859 23.5417C67.8049 23.4858 65.9487 22.2258 63.5713 22.1227C63.9962 21.8198 64.4223 21.4681 64.8297 21.0606C66.1372 19.7532 66.9277 18.1963 67.3607 17.1204C67.8297 15.9551 67.9891 15.1057 67.9957 15.0702C68.0114 14.9848 67.9841 14.8973 67.9228 14.836C67.8614 14.7746 67.7739 14.7475 67.6885 14.7631C67.6431 14.7714 66.5596 14.9753 65.1603 15.6012C65.0274 15.6606 64.9678 15.8166 65.0273 15.9495C65.0868 16.0825 65.2427 16.142 65.3756 16.0826C66.2203 15.7047 66.9544 15.4855 67.3834 15.3748C67.1352 16.3291 66.3462 18.7983 64.4568 20.6877C62.8489 22.2958 60.9134 23.0126 59.8227 23.309L61.9858 21.1459H62.7289C62.8745 21.1459 62.9925 21.0278 62.9925 20.8822C62.9925 20.7366 62.8745 20.6185 62.7289 20.6185H62.5131L63.0867 20.0449H63.8298C63.9754 20.0449 64.0935 19.9269 64.0935 19.7813C64.0935 19.6357 63.9754 19.5176 63.8298 19.5176H63.614L64.6022 18.5294C64.7052 18.4265 64.7052 18.2595 64.6022 18.1566C64.4992 18.0536 64.3323 18.0536 64.2293 18.1566L63.2412 19.1447V18.9289C63.2412 18.7833 63.1231 18.6653 62.9775 18.6653C62.8319 18.6653 62.7138 18.7833 62.7138 18.9289V19.6721L62.1402 20.2457V20.0299C62.1402 19.8843 62.0222 19.7662 61.8766 19.7662C61.7309 19.7662 61.6129 19.8843 61.6129 20.0299V20.773L60.2404 22.1455C60.262 22.0995 60.2837 22.053 60.3053 22.0054C60.6114 21.3333 60.9535 20.4207 61.1712 19.3473C61.4483 18.9738 61.7507 18.6222 62.0713 18.3019C62.7019 17.6713 63.4518 17.1074 64.3001 16.626C64.4268 16.5541 64.4712 16.3932 64.3993 16.2665C64.3274 16.1399 64.1665 16.0955 64.0398 16.1674C63.1503 16.6722 62.3625 17.2649 61.6985 17.9289C61.5734 18.0538 61.4511 18.1834 61.3316 18.3168C61.3716 17.9479 61.3944 17.5656 61.3944 17.1719C61.3944 15.1566 60.8035 13.3469 60.3079 12.1837C59.771 10.9237 59.2394 10.1466 59.217 10.1141C59.1679 10.0427 59.0867 10 59 10C58.9133 10 58.8321 10.0426 58.7829 10.1141C58.7228 10.2013 57.3057 12.2832 56.7886 15.1679C56.7629 15.3112 56.8583 15.4482 57.0016 15.4739C57.145 15.4996 57.282 15.4043 57.3077 15.2609C57.6849 13.1565 58.5843 11.4616 58.9999 10.761C59.5338 11.6624 60.8672 14.2104 60.8672 17.1719C60.8672 19.0891 60.3043 20.7318 59.8321 21.7724C59.6336 22.2096 59.4342 22.5799 59.2637 22.8706V20.1732L59.9684 19.47C60.0714 19.3671 60.0716 19.2001 59.9687 19.0971C59.8659 18.994 59.6989 18.9939 59.5959 19.0967L59.2637 19.4282V18.6469L59.9684 17.9437C60.0715 17.8408 60.0716 17.6739 59.9688 17.5708C59.8659 17.4678 59.699 17.4676 59.5959 17.5704L59.2638 17.9019V17.1206L59.9684 16.4174C60.0715 16.3145 60.0717 16.1476 59.9688 16.0445C59.8659 15.9415 59.699 15.9413 59.5959 16.0441L59.2638 16.3756V14.916C59.2638 14.7704 59.1457 14.6523 59.0001 14.6523C58.8545 14.6523 58.7364 14.7704 58.7364 14.916V16.3756L58.4043 16.0441C58.3012 15.9412 58.1343 15.9414 58.0314 16.0445C57.9286 16.1476 57.9287 16.3146 58.0318 16.4174L58.7365 17.1206V17.9019L58.4043 17.5704C58.3012 17.4675 58.1343 17.4677 58.0315 17.5708C57.9286 17.6739 57.9288 17.8409 58.0318 17.9437L58.7365 18.6469V19.4282L58.4044 19.0967C58.3013 18.9938 58.1343 18.994 58.0315 19.0971C57.9286 19.2002 57.9288 19.3671 58.0319 19.47L58.7365 20.1732V22.8706C58.566 22.5799 58.3666 22.2095 58.1682 21.7724C57.6957 20.7318 57.1329 19.0891 57.1329 17.1719C57.1329 16.9367 57.1414 16.695 57.1582 16.4533C57.1684 16.3081 57.0588 16.1821 56.9135 16.172C56.7683 16.1621 56.6423 16.2714 56.6322 16.4167C56.6145 16.6705 56.6055 16.9246 56.6055 17.1719C56.6055 17.5656 56.6283 17.948 56.6683 18.3168C56.5488 18.1835 56.4265 18.0539 56.3015 17.929C54.9943 16.6216 53.4375 15.8311 52.3617 15.3981C51.1963 14.929 50.347 14.7696 50.3115 14.7631C50.2262 14.7474 50.1386 14.7746 50.0772 14.836C50.0159 14.8973 49.9887 14.9849 50.0044 15.0702C50.0207 15.1588 50.4204 17.2647 51.8209 19.3928C51.8716 19.4698 51.9557 19.5116 52.0414 19.5116C52.0912 19.5116 52.1415 19.4975 52.1861 19.4681C52.3078 19.3881 52.3415 19.2246 52.2614 19.1029C51.2729 17.6009 50.7986 16.0783 50.6164 15.3755C51.571 15.6237 54.0397 16.4128 55.9287 18.3021C56.2492 18.6223 56.5517 18.9739 56.8287 19.3474C57.0464 20.4207 57.3885 21.3334 57.6946 22.0055C57.7162 22.0531 57.7379 22.0996 57.7595 22.1456L56.387 20.7731V20.03C56.387 19.8844 56.269 19.7663 56.1234 19.7663C55.9777 19.7663 55.8597 19.8844 55.8597 20.03V20.2457L55.2861 19.6722V18.929C55.2861 18.7834 55.168 18.6653 55.0224 18.6653C54.8768 18.6653 54.7588 18.7834 54.7588 18.929V19.1448L53.7706 18.1566C53.6676 18.0537 53.5007 18.0537 53.3977 18.1566C53.2947 18.2596 53.2947 18.4266 53.3977 18.5295L54.3859 19.5177H54.1701C54.0245 19.5177 53.9064 19.6357 53.9064 19.7813C53.9064 19.927 54.0245 20.045 54.1701 20.045H54.9132L55.4868 20.6186H55.2711C55.1254 20.6186 55.0074 20.7366 55.0074 20.8823C55.0074 21.0279 55.1254 21.1459 55.2711 21.1459H56.0142L58.1772 23.309C57.0865 23.0126 55.151 22.2959 53.5431 20.6878C53.3473 20.492 53.1564 20.283 52.9758 20.0667C52.8824 19.9549 52.7161 19.94 52.6044 20.0334C52.4927 20.1267 52.4777 20.293 52.5711 20.4048C52.7617 20.6331 52.9633 20.8538 53.1702 21.0606C53.5776 21.4681 54.0038 21.8198 54.4286 22.1227C52.0513 22.2258 50.1952 23.4858 50.1141 23.5417C50.0427 23.5909 50 23.6721 50 23.7588C50 23.8456 50.0427 23.9267 50.1141 23.9759C50.1986 24.0342 52.2129 25.4018 54.7359 25.4018C55.1318 25.4018 55.5103 25.3682 55.8673 25.3111C55.0086 26.4025 54.7739 27.6302 54.7632 27.6886C54.7475 27.7739 54.7747 27.8615 54.8361 27.9228C54.886 27.9726 54.9532 28 55.0225 28C55.0384 28 55.0544 27.9986 55.0702 27.9956C55.1364 27.9835 56.7039 27.6839 57.8732 26.5147C58.2541 26.1338 58.533 25.7203 58.7364 25.3332V27.7363C58.7364 27.8819 58.8544 28 59 28C59.1457 28 59.2637 27.8819 59.2637 27.7363V25.3332C59.4671 25.7203 59.746 26.1338 60.1269 26.5146C61.2962 27.6839 62.8637 27.9834 62.9298 27.9956C62.9457 27.9985 62.9617 28 62.9776 28C63.0469 28 63.1141 27.9726 63.164 27.9227C63.2254 27.8614 63.2526 27.7738 63.2369 27.6886C63.2261 27.6302 62.9915 26.4025 62.1328 25.3111C62.4899 25.3681 62.8683 25.4018 63.2642 25.4018C65.7872 25.4018 67.8015 24.0342 67.886 23.9759C67.9574 23.9267 68.0001 23.8455 68.0001 23.7588C68.0001 23.6721 67.9574 23.5909 67.8859 23.5417ZM50.7716 23.7588C51.4414 23.381 52.9753 22.6431 54.7359 22.6431C54.914 22.6431 55.0942 22.6511 55.2723 22.6661C55.9121 23.0379 56.5167 23.3042 57.012 23.4896C57.0171 23.4915 57.022 23.4932 57.0271 23.4951H55.5907C55.4451 23.4951 55.3271 23.6132 55.3271 23.7588C55.3271 23.9044 55.4451 24.0225 55.5907 24.0225H58.0614C57.331 24.403 56.1422 24.8745 54.7359 24.8745C52.9753 24.8745 51.4413 24.1365 50.7716 23.7588ZM57.5003 26.1418C56.7957 26.8463 55.9062 27.2053 55.3927 27.3661C55.5535 26.8525 55.9125 25.9631 56.617 25.2586C56.6696 25.2061 56.7233 25.156 56.7773 25.1078C57.5463 24.8865 58.1669 24.5817 58.5822 24.3426C58.4194 24.836 58.1009 25.5412 57.5003 26.1418ZM61.383 25.2586C62.0875 25.9631 62.4465 26.8526 62.6073 27.3661C62.0937 27.2053 61.2043 26.8463 60.4997 26.1418C59.8991 25.5411 59.5805 24.8359 59.4177 24.3426C59.8331 24.5817 60.4537 24.8865 61.2228 25.1078C61.2767 25.156 61.3304 25.206 61.383 25.2586ZM63.2641 24.8745C61.8578 24.8745 60.669 24.403 59.9386 24.0225H62.4093C62.5549 24.0225 62.673 23.9044 62.673 23.7588C62.673 23.6132 62.5549 23.4951 62.4093 23.4951H60.9729C60.978 23.4932 60.9829 23.4915 60.988 23.4896C61.4833 23.3042 62.088 23.0379 62.7277 22.6661C62.9059 22.6511 63.086 22.6431 63.2641 22.6431C65.0247 22.6431 66.5587 23.3811 67.2284 23.7588C66.5586 24.1366 65.0247 24.8745 63.2641 24.8745Z" fill="black"/>
<path fill-rule="evenodd" clip-rule="evenodd" d="M10.5378 25.7182C9.54716 26.5386 8.07808 26.8068 6.69084 26.2914C5.39836 25.813 4.49443 24.7726 4.20381 23.6069C4.13159 23.3211 4.11715 23.358 4.35799 23.1878C5.33894 22.4942 6.7037 22.2951 7.99618 22.7736C9.38177 23.289 10.3226 24.4482 10.5378 25.7182Z" fill="#B3E59F"/>
<path fill-rule="evenodd" clip-rule="evenodd" d="M8.71222 20.8598C9.5471 20.9417 10.4382 20.5499 10.9985 19.7648C11.5219 19.0327 11.6295 18.1416 11.3614 17.4047C11.2955 17.2249 11.3164 17.2393 11.1237 17.2361C10.3402 17.22 9.53102 17.6102 9.00924 18.3423C8.44731 19.1258 8.36382 20.0956 8.71222 20.8598Z" fill="#B3E59F"/>
<path fill-rule="evenodd" clip-rule="evenodd" d="M1.94318 14.2369C2.5276 13.6123 3.80405 14.1807 4.37238 14.5628C4.85886 14.8903 4.84923 14.7747 4.89256 14.2449C4.94717 13.5737 5.29556 12.2716 6.12727 12.1978C6.93004 12.1496 7.6654 13.4693 7.7665 15.1456C7.92221 17.7032 6.10796 19.7519 3.5503 19.9077C1.87408 20.0104 0.475624 19.4421 0.425837 18.6377C0.398536 17.7819 1.70229 17.281 2.37336 17.1509C2.94657 17.0385 2.85345 16.9534 2.51627 16.5584C2.07968 16.0447 1.40691 14.8775 1.94318 14.2369Z" fill="#62D9FA"/>
<path fill-rule="evenodd" clip-rule="evenodd" d="M5.4995 12.5543C5.6825 12.3391 5.89445 12.2123 6.1273 12.1978C6.93007 12.1496 7.66543 13.4694 7.76653 15.1456C7.92224 17.7033 6.10799 19.752 3.55033 19.9077C3.17463 19.9302 2.81173 19.9206 2.4762 19.8804C4.87492 19.5882 6.54146 17.6021 6.39215 15.1456C6.32311 14.0169 5.96831 13.0504 5.4995 12.5543Z" fill="#54D0F2"/>
<path fill-rule="evenodd" clip-rule="evenodd" d="M13.7103 0.424316C14.5356 0.448389 15.0124 1.80991 15.189 2.44893C15.3865 3.16022 15.6338 2.95949 16.1636 2.66247C16.7047 2.36221 17.9008 1.87256 18.4451 2.38634C18.999 2.97235 18.4145 4.2343 18.0919 4.8011C17.7386 5.42244 17.8655 5.50752 18.5205 5.68735C19.1322 5.85597 20.3846 6.34404 20.407 7.12274C20.3846 7.91752 19.0776 8.41199 18.4563 8.58219C17.7723 8.76842 17.7964 8.92736 18.1287 9.51019C18.4434 10.0609 18.9781 11.2956 18.445 11.8591C17.8606 12.4114 16.5986 11.827 16.0335 11.5075C15.4218 11.1608 15.3222 11.3036 15.1472 11.9378C14.9787 12.5479 14.4841 13.7987 13.7103 13.8211C12.901 13.797 12.4306 12.4917 12.2524 11.8639C12.0292 11.074 11.7803 11.3004 11.1911 11.6167C10.6565 11.9041 9.50368 12.3585 8.97387 11.8591C8.44082 11.294 8.9771 10.0625 9.29015 9.51019C9.6787 8.82626 9.54378 8.73795 8.82774 8.53722C8.22888 8.37024 7.03433 7.87736 7.01184 7.12274C7.03433 6.32156 8.33961 5.83507 8.96582 5.66487C9.77182 5.44329 9.53421 5.1977 9.2147 4.60359C8.92731 4.07213 8.47453 2.91616 8.97387 2.38634C9.55188 1.84208 10.8266 2.41364 11.3854 2.73633C12.0148 3.09758 12.0919 2.95309 12.2716 2.30444C12.4403 1.6959 12.9396 0.446746 13.7103 0.424316Z" fill="#FD91BA"/>
<path fill-rule="evenodd" clip-rule="evenodd" d="M13.7104 9.63536C15.0943 9.63536 16.2231 8.50663 16.2231 7.12267C16.2231 5.73866 15.0944 4.60999 13.7104 4.60999C12.3264 4.60999 11.196 5.73872 11.196 7.12267C11.196 8.50663 12.3264 9.63536 13.7104 9.63536Z" fill="#FCBF66"/>
<path fill-rule="evenodd" clip-rule="evenodd" d="M17.082 8.58212C16.398 8.76836 16.4221 8.92729 16.7544 9.51012C17.0675 10.0608 17.6038 11.2955 17.0707 11.8591C17.0418 11.8864 17.0097 11.912 16.976 11.9346C17.5138 12.1144 18.0982 12.1866 18.445 11.8591C18.9781 11.2955 18.4435 10.0608 18.1288 9.51012C17.7964 8.92729 17.7723 8.76836 18.4563 8.58212C19.0777 8.41192 20.3846 7.91744 20.4071 7.12267C20.3846 6.34397 19.1323 5.8559 18.5205 5.68728C17.8655 5.50745 17.7386 5.42237 18.0919 4.80103C18.4146 4.23423 18.999 2.97228 18.4451 2.38627C18.1047 2.06354 17.5059 2.13581 16.9744 2.30919C17.0082 2.33167 17.0402 2.35739 17.0708 2.38627C17.6247 2.97228 17.0387 4.23423 16.7176 4.80103C16.3644 5.42237 16.4912 5.50745 17.1446 5.68728C17.7579 5.8559 19.0103 6.34397 19.0327 7.12267C19.0103 7.91744 17.7033 8.41192 17.082 8.58212Z" fill="#F585B0"/>
<path fill-rule="evenodd" clip-rule="evenodd" d="M13.7104 9.63536C15.0976 9.63536 16.2231 8.50985 16.2231 7.12267C16.2231 5.73385 15.0976 4.60999 13.7104 4.60999C13.4712 4.60999 13.2416 4.6421 13.0232 4.70469C14.0765 5.00335 14.8488 5.9731 14.8488 7.12267C14.8488 8.27225 14.0765 9.24205 13.0232 9.54065C13.2415 9.60324 13.4712 9.63536 13.7104 9.63536Z" fill="#F7B551"/>
<path fill-rule="evenodd" clip-rule="evenodd" d="M10.9985 19.7648C11.522 19.0327 11.6295 18.1416 11.3614 17.4047C11.2956 17.2248 11.3164 17.2393 11.1238 17.236C10.7481 17.228 10.3676 17.3147 10.0144 17.4865C10.2471 18.2058 10.1284 19.06 9.62421 19.7648C9.42677 20.041 9.18752 20.269 8.92419 20.4456C9.02054 20.5804 9.11366 20.7169 9.20355 20.855C9.88272 20.7747 10.5474 20.3958 10.9985 19.7648Z" fill="#95D6A4"/>
<path fill-rule="evenodd" clip-rule="evenodd" d="M9.84578 24.1383C9.39946 23.5458 8.76684 23.0594 7.99619 22.7736C7.28173 22.5087 6.54472 22.4509 5.86401 22.5697C6.11606 22.6131 6.36976 22.6805 6.62022 22.7736C8.0074 23.289 8.94667 24.4482 9.16344 25.7182C8.68177 26.1164 8.08931 26.3845 7.4487 26.4953C8.45537 26.6687 9.45242 26.4552 10.2311 25.9446C10.146 25.2734 10.0175 24.6907 9.84578 24.1383Z" fill="#95D6A4"/>
<path d="M6.06629 25.5047C6.26057 25.6331 6.31517 25.8964 6.18512 26.0907C6.05666 26.2866 5.7934 26.3396 5.59754 26.2111C5.14158 25.9093 4.75461 25.5352 4.45119 25.1161C4.14131 24.6874 3.91656 24.2089 3.79133 23.7096C3.77043 23.6245 3.68858 23.4142 3.76561 23.2087C3.83783 23.0128 4.00486 22.9148 4.16538 22.8057C4.71128 22.4316 5.35993 22.194 6.04709 22.1153C6.72621 22.0382 7.44549 22.1169 8.14234 22.3754C8.63681 22.56 9.08161 22.8185 9.4637 23.1332C9.41873 23.0208 9.37059 22.91 9.32238 22.8008C8.68337 21.3654 7.73611 20.1821 6.67002 19.039C5.90894 19.7454 4.90709 20.2078 3.76074 20.317C2.92586 20.3957 1.98336 20.317 1.21752 20.0055C0.499833 19.7133 0.0374764 19.2429 0.00213271 18.6633C-0.0299825 18.1335 0.302384 17.6518 0.878758 17.2858C1.21594 17.0707 1.64459 16.8908 2.13267 16.7655C1.82601 16.3642 1.59804 15.958 1.46476 15.5807C1.23837 14.9385 1.27371 14.3557 1.62528 13.9575C1.97849 13.5593 2.55328 13.4533 3.21801 13.601C3.60815 13.6877 4.04003 13.8644 4.47356 14.1212C4.54096 13.6187 4.6662 13.1707 4.83804 12.8111C5.09332 12.2749 5.53325 11.7739 6.16904 11.7723C6.72134 11.7723 7.21745 12.1672 7.58035 12.8191C7.90467 13.4019 8.13265 14.2127 8.18884 15.1119H8.19042V15.1439V15.1455H8.19207V15.1487C8.25947 16.3866 7.90309 17.517 7.23835 18.4064C7.54982 18.7388 7.84361 19.0663 8.12138 19.3955C8.19688 18.9459 8.37507 18.4996 8.66405 18.0966C8.95949 17.6823 9.33677 17.3612 9.75263 17.1445C10.1861 16.9165 10.663 16.8025 11.1318 16.8122C11.2972 16.8154 11.3919 16.8073 11.5348 16.9085C11.7002 17.0273 11.7291 17.1718 11.7757 17.3067C11.9234 17.737 11.9651 18.2058 11.8928 18.6714C11.8222 19.1338 11.6407 19.5946 11.3437 20.0105C11.0258 20.4552 10.6132 20.7924 10.1604 21.0091C9.93569 21.1167 9.70125 21.1953 9.462 21.2419C9.69644 21.6304 9.90674 22.0318 10.0962 22.4557C10.8139 24.0677 11.1896 25.9687 11.1896 28.5761C11.1896 28.8105 11.0001 28.9999 10.7658 28.9999C10.5314 28.9999 10.3403 28.8105 10.3403 28.5761C10.3403 27.799 10.3066 27.0893 10.2391 26.4359C9.9469 26.6012 9.63221 26.7313 9.30143 26.8229C8.75553 26.9738 8.16794 27.0171 7.57225 26.9417C7.33946 26.9128 7.17571 26.7008 7.20454 26.4696C7.23507 26.2368 7.44538 26.073 7.67817 26.102C8.15984 26.163 8.63505 26.1276 9.07662 26.0056C9.43465 25.9061 9.77024 25.7504 10.0673 25.5432C9.94362 25.0631 9.70278 24.6072 9.36243 24.2138C8.9771 23.7659 8.46173 23.3998 7.84679 23.1718C7.27681 22.9615 6.69075 22.8956 6.14009 22.9583C5.58134 23.0225 5.05798 23.2168 4.61964 23.5234C4.71921 23.9104 4.89582 24.2829 5.13824 24.6184C5.38394 24.9572 5.697 25.2607 6.06629 25.5047ZM12.9252 9.05897C13.142 9.14728 13.2463 9.39451 13.158 9.61128C13.0697 9.82804 12.8225 9.93237 12.6057 9.84571C12.0614 9.62413 11.5974 9.24362 11.2715 8.76037C10.9552 8.29155 10.7722 7.72798 10.7722 7.12266C10.7722 6.31027 11.1013 5.57655 11.6328 5.04509C12.1642 4.51363 12.8979 4.18449 13.7104 4.18449C14.5211 4.18449 15.2549 4.51363 15.788 5.04509C16.3194 5.57655 16.6486 6.31027 16.6486 7.12266C16.6486 7.72798 16.4639 8.2915 16.1476 8.76037C15.8233 9.24362 15.3593 9.62413 14.8134 9.84571C14.5966 9.93237 14.3494 9.82804 14.2611 9.61128C14.1728 9.39451 14.2787 9.14728 14.4955 9.05897C14.884 8.89998 15.2148 8.63026 15.4444 8.28832C15.6676 7.95596 15.7976 7.5546 15.7976 7.12266C15.7976 6.54629 15.5648 6.02287 15.1859 5.64553C14.8085 5.2682 14.2868 5.03382 13.7104 5.03382C13.1324 5.03382 12.6105 5.26825 12.2333 5.64553C11.8544 6.02282 11.6215 6.54623 11.6215 7.12266C11.6215 7.55455 11.7516 7.95596 11.9747 8.28832C12.206 8.63026 12.5351 8.89998 12.9252 9.05897ZM14.8728 0.705236C15.2469 1.21738 15.4684 1.8709 15.584 2.2867C15.6322 2.45684 15.91 2.3204 16.0079 2.2658C16.3611 2.06829 16.9247 1.82428 17.4995 1.75524C17.9602 1.69905 18.4082 1.7681 18.7358 2.07798C19.0858 2.40553 19.1388 2.93857 19.0729 3.38648C18.9846 3.99497 18.6699 4.64045 18.4612 5.00969C18.3071 5.28105 18.5351 5.25375 18.6314 5.27947C19.0312 5.38861 19.6831 5.62463 20.1599 5.98747C20.5404 6.27651 20.8181 6.64734 20.831 7.11133C20.8439 7.58819 20.5034 8.00082 20.1422 8.27218C19.6509 8.63825 18.9749 8.87908 18.5671 8.98987C18.2749 9.07013 18.4371 9.19701 18.4981 9.30134C18.702 9.65936 18.9942 10.2888 19.0729 10.8812C19.1371 11.3548 19.0713 11.8124 18.755 12.1496C18.4259 12.498 17.8961 12.551 17.4481 12.4852C16.838 12.3969 16.1925 12.0838 15.8233 11.8751C15.5696 11.7322 15.6033 11.8623 15.5552 12.0501C15.4444 12.4483 15.2051 13.1002 14.8439 13.5738C14.6464 13.8323 14.4104 14.0442 14.1342 14.1566V28.5761C14.1342 28.8105 13.9448 28.9999 13.7104 28.9999C13.4759 28.9999 13.2849 28.8105 13.2849 28.5761V14.1582C13.0007 14.0442 12.7599 13.8258 12.5608 13.5577C12.1932 13.0632 11.9603 12.3872 11.8447 11.9794C11.7708 11.7193 11.5429 11.9087 11.3919 11.9906C11.0419 12.1785 10.4495 12.4321 9.89072 12.4916C9.43957 12.5413 9.00282 12.4691 8.68337 12.1672C8.34137 11.8461 8.28683 11.3211 8.34619 10.8828C8.42645 10.2903 8.71707 9.66101 8.92256 9.30134C9.11361 8.96252 9.06863 9.04606 8.71225 8.9449C8.32211 8.8357 7.69754 8.59809 7.23835 8.24007C6.87064 7.95426 6.60092 7.58819 6.58812 7.13382C6.57526 6.65538 6.91245 6.24275 7.27693 5.97139C7.76664 5.60532 8.44417 5.36771 8.85357 5.25528C9.12811 5.17984 8.9306 4.96953 8.84071 4.80414C8.65284 4.45574 8.40079 3.86164 8.33979 3.30294C8.29164 2.85174 8.36227 2.41504 8.66411 2.09553C8.99325 1.74714 9.52788 1.69735 9.97426 1.76158C10.5827 1.84988 11.2314 2.15818 11.5959 2.36848C11.7163 2.43589 11.8206 2.33314 11.8624 2.19029C11.9732 1.7937 12.2141 1.14352 12.5769 0.669836C12.8659 0.290911 13.2368 0.0147886 13.6976 0.000345225C14.1856 -0.0124555 14.6014 0.332712 14.8728 0.705236ZM14.1888 1.20616C14.0426 1.00549 13.8789 0.859355 13.7103 0.84814C13.553 0.859355 13.394 0.997445 13.2495 1.18532C12.9653 1.5562 12.7694 2.08766 12.6795 2.4168C12.5607 2.84387 12.4676 3.11042 12.2139 3.26289C11.9345 3.42987 11.6392 3.36887 11.1752 3.10238C10.8717 2.92736 10.337 2.67049 9.85537 2.60145C9.61295 2.5661 9.39777 2.57902 9.27418 2.68652C9.17625 2.7989 9.15858 2.99476 9.18265 3.21311C9.22921 3.64182 9.43476 4.11868 9.58729 4.4012C9.63549 4.4895 9.65469 4.52643 9.67401 4.56178C9.77676 4.74478 9.86024 4.89573 9.90516 5.05789C10.0417 5.55565 9.8795 5.85261 9.07674 6.0726C8.73474 6.16572 8.1744 6.36 7.78426 6.65221C7.58998 6.7967 7.44707 6.95891 7.43586 7.12266C7.44549 7.27678 7.57876 7.43254 7.76018 7.5738C8.11181 7.84834 8.62078 8.03944 8.94187 8.12933C9.40752 8.25938 9.69168 8.36377 9.84257 8.63513C10.008 8.9257 9.9341 9.23235 9.65792 9.71889C9.48936 10.0175 9.24853 10.5329 9.18594 10.9953C9.15382 11.2281 9.16827 11.4384 9.27424 11.5589C9.38661 11.6552 9.58248 11.6728 9.80083 11.6487C10.2295 11.6022 10.7048 11.3967 10.9906 11.2441C11.0291 11.2233 11.0837 11.1927 11.1335 11.1638C11.3181 11.0627 11.469 10.9792 11.6296 10.9342C12.1322 10.7913 12.434 10.9487 12.6603 11.7499C12.7583 12.0967 12.9525 12.665 13.2416 13.0536C13.3411 13.1868 13.529 13.3956 13.7104 13.3956C13.8838 13.3956 14.0732 13.1869 14.1696 13.0601C14.4537 12.6875 14.648 12.1545 14.738 11.8238C14.8551 11.4015 14.9595 11.135 15.2132 10.9873C15.4926 10.8267 15.7896 10.8829 16.2424 11.1382C16.5523 11.3149 17.0885 11.5766 17.567 11.6456C17.8062 11.6809 18.0213 11.668 18.1466 11.5589C18.251 11.4384 18.2654 11.2281 18.2333 10.9937C18.1707 10.5313 17.9315 10.0176 17.7613 9.71889C17.5397 9.33034 17.4241 9.06866 17.5044 8.78444C17.5895 8.47297 17.8432 8.31081 18.3457 8.17272C18.6845 8.08119 19.2433 7.88368 19.635 7.59148C19.8293 7.4454 19.9737 7.28324 19.985 7.12266C19.9737 6.96214 19.8357 6.80315 19.6478 6.66189C19.277 6.37931 18.7407 6.18662 18.4083 6.09509C17.9732 5.97631 17.7067 5.87515 17.559 5.61823C17.4 5.33888 17.4643 5.04667 17.7243 4.59066C17.9009 4.28078 18.1627 3.74457 18.2333 3.26448C18.2686 3.02523 18.2558 2.8117 18.1466 2.68646C18.031 2.5853 17.8271 2.56928 17.5991 2.59816C17.1511 2.65118 16.6582 2.87111 16.3708 3.03327C16.183 3.13925 15.9759 3.26929 15.7688 3.32548C15.2887 3.46034 14.9901 3.31104 14.7813 2.56123C14.6833 2.20644 14.4858 1.61239 14.1888 1.20616ZM6.34564 18.1609C6.35369 18.1512 6.36167 18.1432 6.37136 18.1336C7.03926 17.371 7.40856 16.3418 7.34433 15.197C7.34274 15.1794 7.3411 15.1616 7.3411 15.1456C7.29296 14.3814 7.10508 13.7054 6.84017 13.2302C6.62987 12.8513 6.39062 12.6201 6.17068 12.6201C6.15947 12.6217 6.14661 12.6234 6.13534 12.6234C5.94587 12.6458 5.75964 12.8513 5.60552 13.1757C5.40484 13.5963 5.2812 14.1791 5.26998 14.8358C5.26675 14.9514 5.25713 15.0381 5.18168 15.1392C5.03878 15.3239 4.77387 15.3592 4.58922 15.2163C4.04978 14.802 3.50065 14.5307 3.03665 14.428C2.67375 14.3477 2.38959 14.3702 2.25954 14.5179C2.12949 14.6656 2.14071 14.9482 2.26435 15.2999C2.42006 15.7398 2.74761 16.2423 3.21161 16.7191C3.2887 16.7978 3.33848 16.8685 3.35451 16.9857C3.3834 17.2185 3.22124 17.4304 2.98845 17.461C2.31414 17.5493 1.7329 17.7451 1.33313 18.0004C1.02002 18.1995 0.837014 18.4163 0.849871 18.6137C0.862729 18.8369 1.12441 19.0521 1.53703 19.219C2.24028 19.5048 2.81501 19.4839 3.55038 19.4839C4.69355 19.4067 5.67134 18.9171 6.34564 18.1609ZM9.00928 20.4456C9.27583 20.4344 9.54391 20.3669 9.79601 20.2465C10.1219 20.0908 10.4206 19.8451 10.6534 19.5192C10.8701 19.2173 11.0018 18.8818 11.0531 18.5462C11.0997 18.2411 11.0805 17.9393 10.9985 17.6599C10.7079 17.6728 10.4158 17.7515 10.1444 17.8944C9.8441 18.0501 9.57121 18.2845 9.3528 18.588C9.12159 18.9123 8.98515 19.2752 8.94335 19.6348C8.91134 19.9125 8.93383 20.1903 9.00928 20.4456Z" fill="black"/>
</svg>
